<mxfile host="Electron" modified="2024-06-17T21:46:00.016Z" agent="Mozilla/5.0 (Windows NT 10.0; Win64; x64) AppleWebKit/537.36 (KHTML, like Gecko) draw.io/24.4.0 Chrome/120.0.6099.109 Electron/28.1.0 Safari/537.36" etag="iiBXg497ASrtTQSv__28" version="24.4.0" type="device">
  <diagram name="Page-1" id="1CLn_xWbwQZFQWBH239_">
    <mxGraphModel dx="1036" dy="702" grid="1" gridSize="10" guides="1" tooltips="1" connect="1" arrows="1" fold="1" page="1" pageScale="1" pageWidth="850" pageHeight="1100" math="0" shadow="0">
      <root>
        <mxCell id="0" />
        <mxCell id="1" parent="0" />
        <mxCell id="anY16GfKdfX9A7vA86n6-1" value="User Input" style="whiteSpace=wrap;strokeWidth=2;" vertex="1" parent="1">
          <mxGeometry x="77" y="20" width="89" height="33" as="geometry" />
        </mxCell>
        <mxCell id="anY16GfKdfX9A7vA86n6-2" value="Manual Search" style="whiteSpace=wrap;strokeWidth=2;" vertex="1" parent="1">
          <mxGeometry x="62" y="103" width="119" height="33" as="geometry" />
        </mxCell>
        <mxCell id="anY16GfKdfX9A7vA86n6-3" value="Manual Link Compilation" style="whiteSpace=wrap;strokeWidth=2;" vertex="1" parent="1">
          <mxGeometry x="26" y="187" width="192" height="33" as="geometry" />
        </mxCell>
        <mxCell id="anY16GfKdfX9A7vA86n6-4" value="Manual Capability Check" style="whiteSpace=wrap;strokeWidth=2;" vertex="1" parent="1">
          <mxGeometry x="26" y="270" width="192" height="33" as="geometry" />
        </mxCell>
        <mxCell id="anY16GfKdfX9A7vA86n6-5" value="Manual Report Generation" style="whiteSpace=wrap;strokeWidth=2;" vertex="1" parent="1">
          <mxGeometry x="20" y="354" width="203" height="33" as="geometry" />
        </mxCell>
        <mxCell id="anY16GfKdfX9A7vA86n6-6" value="" style="curved=1;startArrow=none;endArrow=block;exitX=0.5007724547654056;exitY=1.0121212583599668;entryX=0.5005777182699251;entryY=0.012121258359966856;rounded=0;" edge="1" parent="1" source="anY16GfKdfX9A7vA86n6-1" target="anY16GfKdfX9A7vA86n6-2">
          <mxGeometry relative="1" as="geometry">
            <Array as="points" />
          </mxGeometry>
        </mxCell>
        <mxCell id="anY16GfKdfX9A7vA86n6-7" value="" style="curved=1;startArrow=none;endArrow=block;exitX=0.5005777182699251;exitY=1.0242425167199336;entryX=0.49775389830271405;entryY=-0.006060513583096591;rounded=0;" edge="1" parent="1" source="anY16GfKdfX9A7vA86n6-2" target="anY16GfKdfX9A7vA86n6-3">
          <mxGeometry relative="1" as="geometry">
            <Array as="points" />
          </mxGeometry>
        </mxCell>
        <mxCell id="anY16GfKdfX9A7vA86n6-8" value="" style="curved=1;startArrow=none;endArrow=block;exitX=0.49775389830271405;exitY=1.0060607447768704;entryX=0.49775389830271405;entryY=0.006060744776870265;rounded=0;" edge="1" parent="1" source="anY16GfKdfX9A7vA86n6-3" target="anY16GfKdfX9A7vA86n6-4">
          <mxGeometry relative="1" as="geometry">
            <Array as="points" />
          </mxGeometry>
        </mxCell>
        <mxCell id="anY16GfKdfX9A7vA86n6-9" value="" style="curved=1;startArrow=none;endArrow=block;exitX=0.49775389830271405;exitY=1.0181820031368372;entryX=0.5003386624340941;entryY=-0.012121027166193182;rounded=0;" edge="1" parent="1" source="anY16GfKdfX9A7vA86n6-4" target="anY16GfKdfX9A7vA86n6-5">
          <mxGeometry relative="1" as="geometry">
            <Array as="points" />
          </mxGeometry>
        </mxCell>
      </root>
    </mxGraphModel>
  </diagram>
</mxfile>
